<svg width="19" height="16" viewBox="0 0 19 16" fill="none" xmlns="http://www.w3.org/2000/svg">
<path d="M14.6392 7.41667C16.2083 7.18417 17.4167 5.78833 17.4167 4.1C17.4167 2.25 15.9658 0.75 14.1758 0.75H3.99167C2.2 0.75 0.75 2.25 0.75 4.1C0.75 5.78833 1.9575 7.18417 3.5275 7.41667" stroke="#2A2E33" stroke-width="1.5"/>
<path d="M9.08333 3.25V9.08333M9.08333 9.08333L10.75 7.13917M9.08333 9.08333L7.41667 7.13917" stroke="#2A2E33" stroke-width="1.5" stroke-linecap="round" stroke-linejoin="round"/>
<path d="M3.25 6.58333C3.25 5.01167 3.25 4.22667 3.73833 3.73833C4.22667 3.25 5.01167 3.25 6.58333 3.25H11.5833C13.155 3.25 13.94 3.25 14.4283 3.73833C14.9167 4.22667 14.9167 5.01167 14.9167 6.58333V11.5833C14.9167 13.155 14.9167 13.94 14.4283 14.4283C13.94 14.9167 13.155 14.9167 11.5833 14.9167H6.58333C5.01167 14.9167 4.22667 14.9167 3.73833 14.4283C3.25 13.94 3.25 13.155 3.25 11.5833V6.58333Z" stroke="#2A2E33" stroke-width="1.5"/>
<path d="M3.25 12.4167H14.9167" stroke="#2A2E33" stroke-width="1.5" stroke-linecap="round" stroke-linejoin="round"/>
</svg>
