<svg width="47" height="24" viewBox="0 0 47 24" fill="none" xmlns="http://www.w3.org/2000/svg">
<path d="M11.6907 6.76128C11.2863 7.2381 10.6392 7.61427 9.99202 7.56055C9.91112 6.91576 10.2279 6.23069 10.5987 5.80756C11.0031 5.31728 11.711 4.96803 12.2839 4.94116C12.3514 5.61279 12.0884 6.27099 11.6907 6.76128ZM12.2772 7.6881C11.3402 7.63439 10.538 8.21871 10.0931 8.21871C9.64148 8.21871 8.96065 7.715 8.21912 7.72841C7.25517 7.74189 6.35862 8.28584 5.86653 9.15224C4.85538 10.8851 5.60363 13.4507 6.58107 14.8611C7.05971 15.5596 7.63268 16.3253 8.38762 16.2984C9.10218 16.2716 9.38531 15.835 10.2482 15.835C11.1178 15.835 11.3671 16.2984 12.1222 16.285C12.9041 16.2716 13.3962 15.5865 13.8748 14.888C14.4208 14.0955 14.6433 13.3231 14.6568 13.2828C14.6433 13.2694 13.1467 12.6985 13.1333 10.9791C13.1198 9.54182 14.3129 8.85676 14.3669 8.81646C13.6928 7.82243 12.6412 7.715 12.2772 7.6881ZM17.6902 5.7404V16.2111H19.3215V12.6313H21.5797C23.6424 12.6313 25.0918 11.2209 25.0918 9.17914C25.0918 7.13737 23.6694 5.7404 21.6336 5.7404H17.6902ZM19.3215 7.11055H21.2022C22.6179 7.11055 23.4267 7.86274 23.4267 9.18584C23.4267 10.5089 22.6179 11.2679 21.1955 11.2679H19.3215V7.11055ZM28.0713 16.2917C29.0959 16.2917 30.0464 15.7746 30.4778 14.9552H30.5115V16.2111H32.0215V10.9993C32.0215 9.4881 30.8081 8.5142 28.9409 8.5142C27.2084 8.5142 25.9277 9.50151 25.8804 10.8582H27.35C27.4714 10.2135 28.0713 9.79029 28.8937 9.79029C29.8913 9.79029 30.4508 10.2538 30.4508 11.1067V11.6843L28.4151 11.8052C26.5209 11.9194 25.4962 12.6917 25.4962 14.035C25.4962 15.3917 26.5546 16.2917 28.0713 16.2917ZM28.5094 15.0492C27.6399 15.0492 27.0871 14.6328 27.0871 13.9947C27.0871 13.3365 27.6197 12.9537 28.6375 12.8933L30.4508 12.7791V13.3701C30.4508 14.3507 29.615 15.0492 28.5094 15.0492ZM34.0371 19.0588C35.6279 19.0588 36.3761 18.4544 37.03 16.6208L39.895 8.615H38.2366L36.3155 14.8007H36.2818L34.3606 8.615H32.6551L35.419 16.238L35.2707 16.7014C35.0212 17.4872 34.6168 17.7894 33.8955 17.7894C33.7674 17.7894 33.5179 17.776 33.4169 17.7626V19.0185C33.5112 19.0454 33.9157 19.0588 34.0371 19.0588Z" fill="black"/>
</svg>
