<svg width="36" height="36" viewBox="0 0 36 36" fill="none" xmlns="http://www.w3.org/2000/svg">
<rect width="36" height="36" rx="18" fill="#0641FC"/>
<path d="M7.176 25L11.288 13.08H14.104L18.216 25H15.848L15 22.44H10.392L9.528 25H7.176ZM11.016 20.52H14.376L12.392 14.584H13L11.016 20.52ZM19.5426 25V13.08H23.9906C24.8013 13.08 25.516 13.2293 26.1346 13.528C26.764 13.816 27.2546 14.2427 27.6066 14.808C27.9586 15.3627 28.1346 16.04 28.1346 16.84C28.1346 17.6293 27.9533 18.3067 27.5906 18.872C27.2386 19.4267 26.7533 19.8533 26.1346 20.152C25.516 20.4507 24.8013 20.6 23.9906 20.6H21.7186V25H19.5426ZM21.7186 18.68H24.0226C24.4173 18.68 24.7586 18.6053 25.0466 18.456C25.3346 18.296 25.5586 18.0773 25.7186 17.8C25.8786 17.5227 25.9586 17.2027 25.9586 16.84C25.9586 16.4667 25.8786 16.1467 25.7186 15.88C25.5586 15.6027 25.3346 15.3893 25.0466 15.24C24.7586 15.08 24.4173 15 24.0226 15H21.7186V18.68Z" fill="white"/>
</svg>
