<svg width="30" height="32" viewBox="0 0 30 32" fill="none" xmlns="http://www.w3.org/2000/svg">
<path d="M21.7501 13.71V13.005C21.7501 9.136 18.7261 6 15.0001 6C11.2741 6 8.25006 9.136 8.25006 13.005V13.71C8.25127 14.5516 8.01111 15.3758 7.55806 16.085L6.45006 17.81C5.43906 19.385 6.21106 21.526 7.97006 22.024C12.5664 23.3257 17.4338 23.3257 22.0301 22.024C23.7891 21.526 24.5611 19.385 23.5501 17.811L22.4421 16.086C21.9887 15.3769 21.7482 14.5527 21.7491 13.711L21.7501 13.71Z" stroke="#2A2E33" stroke-width="1.5"/>
<path d="M10.5001 23C11.1551 24.748 12.9221 26 15.0001 26C17.0781 26 18.8451 24.748 19.5001 23M15.0001 10V14" stroke="#2A2E33" stroke-width="1.5" stroke-linecap="round"/>
</svg>
