<svg width="32" height="32" viewBox="0 0 32 32" fill="none" xmlns="http://www.w3.org/2000/svg">
<path d="M7.464 24.536C8.93 26 11.286 26 16 26C20.714 26 23.071 26 24.535 24.535C26 23.072 26 20.714 26 16C26 11.286 26 8.929 24.535 7.464C23.072 6 20.714 6 16 6C11.286 6 8.929 6 7.464 7.464C6 8.93 6 11.286 6 16C6 20.714 6 23.072 7.464 24.536Z" stroke="#2A2E33" stroke-width="1.5"/>
<path d="M22 12.5H18M22 18.5H18M22 21.5H18M14 12.5H12M12 12.5H10M12 12.5V10.5M12 12.5V14.5M13.5 18.5L12 20M12 20L10.5 21.5M12 20L10.5 18.5M12 20L13.5 21.5" stroke="#2A2E33" stroke-width="1.5" stroke-linecap="round"/>
</svg>
