<svg width="19" height="15" viewBox="0 0 19 15" fill="none" xmlns="http://www.w3.org/2000/svg">
<path d="M4.08333 4.08334H7.41667" stroke="#2A2E33" stroke-width="1.5" stroke-linecap="round" stroke-linejoin="round"/>
<path d="M16.4442 4.91666H14.2758C12.7883 4.91666 11.5833 6.03582 11.5833 7.41666C11.5833 8.79749 12.7892 9.91666 14.275 9.91666H16.4442C16.5142 9.91666 16.5483 9.91666 16.5775 9.91499C17.0275 9.88749 17.3858 9.55499 17.415 9.13749C17.4167 9.11082 17.4167 9.07832 17.4167 9.01416V5.81916C17.4167 5.75499 17.4167 5.72249 17.415 5.69582C17.385 5.27832 17.0275 4.94582 16.5775 4.91832C16.5492 4.91666 16.5142 4.91666 16.4442 4.91666Z" stroke="#2A2E33" stroke-width="1.5"/>
<path d="M16.5542 4.91667C16.4892 3.35667 16.2808 2.4 15.6067 1.72667C14.6308 0.75 13.0592 0.75 9.91667 0.75H7.41667C4.27417 0.75 2.7025 0.75 1.72667 1.72667C0.750833 2.70333 0.75 4.27417 0.75 7.41667C0.75 10.5592 0.75 12.1308 1.72667 13.1067C2.70333 14.0825 4.27417 14.0833 7.41667 14.0833H9.91667C13.0592 14.0833 14.6308 14.0833 15.6067 13.1067C16.2808 12.4333 16.49 11.4767 16.5542 9.91667" stroke="#2A2E33" stroke-width="1.5"/>
<path d="M14.0758 7.41666H14.0833" stroke="#2A2E33" stroke-width="2" stroke-linecap="round" stroke-linejoin="round"/>
</svg>
