<svg width="18" height="18" viewBox="0 0 18 18" fill="none" xmlns="http://www.w3.org/2000/svg">
<path d="M6.58333 7.41667C8.42428 7.41667 9.91667 5.92428 9.91667 4.08333C9.91667 2.24238 8.42428 0.75 6.58333 0.75C4.74238 0.75 3.25 2.24238 3.25 4.08333C3.25 5.92428 4.74238 7.41667 6.58333 7.41667Z" stroke="#2A2E33" stroke-width="1.5"/>
<path d="M6.58333 16.5833C9.80499 16.5833 12.4167 15.091 12.4167 13.25C12.4167 11.4091 9.80499 9.91667 6.58333 9.91667C3.36167 9.91667 0.75 11.4091 0.75 13.25C0.75 15.091 3.36167 16.5833 6.58333 16.5833Z" stroke="#2A2E33" stroke-width="1.5"/>
<path d="M14.0833 6.28667L13.64 6.72667C13.6981 6.78512 13.7672 6.83152 13.8432 6.86317C13.9193 6.89483 14.0009 6.91112 14.0833 6.91112C14.1657 6.91112 14.2473 6.89483 14.3234 6.86317C14.3995 6.83152 14.4686 6.78512 14.5267 6.72667L14.0833 6.28667ZM13.7033 9.035C13.2975 8.72584 12.9325 8.47834 12.6383 8.1575C12.3658 7.86 12.2083 7.55334 12.2083 7.16584H10.9583C10.9583 7.9575 11.3033 8.55167 11.7167 9.0025C12.1092 9.43 12.6142 9.7775 12.945 10.0292L13.7033 9.035ZM12.2083 7.16584C12.2083 6.8225 12.4083 6.54584 12.6642 6.4325C12.8867 6.33417 13.2392 6.32417 13.64 6.72667L14.5267 5.84584C13.8017 5.11667 12.9058 4.95834 12.1583 5.28917C11.7986 5.45309 11.4939 5.71753 11.281 6.05065C11.0681 6.38376 10.956 6.7705 10.9583 7.16584H12.2083ZM12.945 10.0292C13.0683 10.1233 13.23 10.2458 13.3992 10.3425C13.5683 10.4392 13.805 10.5417 14.0833 10.5417V9.29167C14.1117 9.29167 14.0975 9.30084 14.015 9.255C13.9317 9.20834 13.8383 9.13834 13.7033 9.035L12.945 10.0292ZM15.2217 10.0292C15.5525 9.77667 16.0575 9.43 16.4492 9.0025C16.8633 8.55167 17.2083 7.95667 17.2083 7.16667H15.9583C15.9583 7.55334 15.8008 7.86 15.5283 8.15834C15.2342 8.47834 14.8692 8.72584 14.4633 9.035L15.2217 10.0292ZM17.2083 7.16667C17.2083 6.33334 16.7208 5.60417 16.0083 5.28917C15.2617 4.95834 14.3642 5.11667 13.64 5.84584L14.5267 6.72667C14.9267 6.32417 15.28 6.33417 15.5017 6.4325C15.64 6.49821 15.7565 6.60224 15.8375 6.73223C15.9184 6.86222 15.9604 7.01355 15.9583 7.16667H17.2083ZM14.4633 9.035C14.3637 9.11423 14.2597 9.18768 14.1517 9.255C14.0692 9.30167 14.055 9.29167 14.0833 9.29167V10.5417C14.3617 10.5417 14.5975 10.4392 14.7667 10.3425C14.9367 10.2467 15.0983 10.1233 15.2217 10.0292L14.4633 9.035Z" fill="#2A2E33"/>
</svg>
