<svg width="19" height="19" viewBox="0 0 19 19" fill="none" xmlns="http://www.w3.org/2000/svg">
<path d="M9.08333 17.4167C13.6858 17.4167 17.4167 13.6858 17.4167 9.08333C17.4167 4.48083 13.6858 0.75 9.08333 0.75C4.48083 0.75 0.75 4.48083 0.75 9.08333C0.75 10.4167 1.06333 11.6767 1.61917 12.7942C1.7675 13.0908 1.81667 13.43 1.73083 13.7508L1.235 15.6058C1.18589 15.7894 1.18594 15.9827 1.23513 16.1662C1.28432 16.3498 1.38093 16.5172 1.51526 16.6516C1.64959 16.786 1.81692 16.8827 2.00044 16.932C2.18396 16.9813 2.37723 16.9815 2.56083 16.9325L4.41583 16.4358C4.73782 16.3545 5.07845 16.3939 5.37333 16.5467C6.52579 17.1205 7.79593 17.4183 9.08333 17.4167Z" stroke="#2A2E33" stroke-width="1.5"/>
<path d="M9.08333 11.8608C10.0042 11.8608 10.75 11.2392 10.75 10.4725C10.75 9.70583 10.0042 9.08333 9.08333 9.08333C8.1625 9.08333 7.41667 8.46167 7.41667 7.69417C7.41667 6.9275 8.1625 6.30583 9.08333 6.30583M9.08333 11.8608C8.1625 11.8608 7.41667 11.2392 7.41667 10.4725M9.08333 11.8608V12.4167M9.08333 6.30583V5.75M9.08333 6.30583C10.0042 6.30583 10.75 6.9275 10.75 7.69417" stroke="#2A2E33" stroke-width="1.5" stroke-linecap="round"/>
</svg>
