<svg width="19" height="19" viewBox="0 0 19 19" fill="none" xmlns="http://www.w3.org/2000/svg">
<path d="M1.05388 9.88167C0.737211 7.68417 0.578878 6.585 1.02971 5.64583C1.48054 4.70667 2.43888 4.135 4.35638 2.99333L5.51054 2.30583C7.25054 1.26833 8.12221 0.75 9.08388 0.75C10.0455 0.75 10.9164 1.26833 12.6572 2.30583L13.8114 2.99333C15.728 4.135 16.6872 4.70667 17.138 5.64583C17.5889 6.585 17.4297 7.68417 17.113 9.88167L16.8814 11.4958C16.4755 14.3192 16.2722 15.73 15.293 16.5733C14.3139 17.4167 12.878 17.4167 10.0055 17.4167H8.16221C5.28971 17.4167 3.85388 17.4167 2.87471 16.5733C1.89554 15.73 1.69221 14.3192 1.28638 11.4958L1.05388 9.88167Z" stroke="#2A2E33" stroke-width="1.5"/>
<path d="M11.5839 14.0833H6.58388" stroke="#2A2E33" stroke-width="1.5" stroke-linecap="round"/>
</svg>
