<svg width="49" height="24" viewBox="0 0 49 24" fill="none" xmlns="http://www.w3.org/2000/svg">
<mask id="mask0_1_510" style="mask-type:luminance" maskUnits="userSpaceOnUse" x="4" y="5" width="40" height="14">
<path d="M43.9846 5.80896H4.01562V18.1898H43.9846V5.80896Z" fill="white"/>
</mask>
<g mask="url(#mask0_1_510)">
<path d="M4.01562 10.8797H6.96655C7.49899 8.06817 9.94233 5.80896 13.0574 5.80896C16.1725 5.80896 19.0836 8.33188 19.0836 12.1387C19.0836 12.4913 19.0438 12.8702 19.004 13.1589H9.47455C9.9224 14.8906 11.3456 15.9057 13.0574 15.9057C14.7692 15.9057 15.6251 15.3334 16.4959 14.3382L18.2476 15.9455C17.0881 17.2692 15.3564 18.1848 13.0574 18.1848C10.7584 18.1848 7.49899 15.9654 6.97149 13.1538H4.01562V10.8747V10.8797ZM16.5557 10.8797C16.4313 10.1681 16.1079 9.51624 15.6401 9.04846C15.028 8.43639 14.1323 8.05326 13.0524 8.05326C11.9726 8.05326 11.0968 8.42148 10.4449 9.07333C9.79302 9.72526 9.6288 10.1333 9.44968 10.8847H16.5557V10.8797ZM20.8551 5.88858H23.4179V15.6618H28.0607V18.1052H23.4577C21.7657 18.1052 20.8502 17.1895 20.8502 15.4976V5.88858H20.8551ZM28.5484 11.9994C28.5484 8.68024 31.2554 5.80896 34.8383 5.80896C38.4212 5.80896 40.4962 8.04824 41.0287 10.8797H43.9796V13.1589H41.0287C40.4813 15.9704 37.9932 18.1898 34.8383 18.1898C31.2355 18.1898 28.5484 15.3384 28.5484 11.9994ZM34.8433 15.7863C36.9831 15.7863 38.5705 14.1591 38.5705 12.0193C38.5705 9.87951 36.9432 8.21246 34.8433 8.21246C32.7035 8.21246 31.1161 9.83966 31.1161 11.9994C31.1161 14.1591 32.7433 15.7863 34.8433 15.7863Z" fill="#003933"/>
</g>
</svg>
