<svg width="19" height="18" viewBox="0 0 19 18" fill="none" xmlns="http://www.w3.org/2000/svg">
<path d="M10.75 3.25H7.41667C6.28667 3.25 5.36 3.25 4.59167 3.295C3.22083 3.37583 2.35167 3.60083 1.72667 4.22667C0.75 5.2025 0.75 6.77417 0.75 9.91667C0.75 13.0592 0.75 14.6308 1.72667 15.6067C2.70333 16.5825 4.27417 16.5833 7.41667 16.5833H10.75C13.8925 16.5833 15.4642 16.5833 16.44 15.6067C17.4158 14.63 17.4167 13.0592 17.4167 9.91667C17.4167 6.77417 17.4167 5.2025 16.44 4.22667C15.815 3.60167 14.9458 3.37667 13.5758 3.295C12.8067 3.25 11.88 3.25 10.75 3.25Z" stroke="#2A2E33" stroke-width="1.5"/>
<path d="M4.59167 3.295C5.2775 3.27833 5.88333 2.795 6.11667 2.15L6.14583 2.06417L6.16667 2C6.20167 1.89417 6.22 1.84167 6.23833 1.795C6.35605 1.50234 6.55441 1.2491 6.81034 1.06471C7.06628 0.880316 7.3693 0.772341 7.68417 0.753333C7.73333 0.75 7.79 0.75 7.9 0.75H10.265C10.3758 0.75 10.4317 0.75 10.4817 0.753333C10.7965 0.772341 11.0996 0.880316 11.3555 1.06471C11.6114 1.2491 11.8098 1.50234 11.9275 1.795C11.9467 1.84167 11.9642 1.895 11.9992 2L12.0208 2.06417C12.0358 2.10833 12.0425 2.13083 12.05 2.15C12.2833 2.79583 12.8892 3.27833 13.575 3.295" stroke="#2A2E33" stroke-width="1.5"/>
<path d="M17.135 5.51666C14.6267 7.14666 13.3725 7.96166 12.0508 8.3725C10.1183 8.97292 8.04916 8.97292 6.11667 8.3725C4.79417 7.96166 3.54 7.1475 1.03167 5.51666M5.75 7.41666V9.08333M12.4167 7.41666V9.08333" stroke="#2A2E33" stroke-width="1.5" stroke-linecap="round"/>
</svg>
