<svg width="44" height="24" viewBox="0 0 44 24" fill="none" xmlns="http://www.w3.org/2000/svg">
<mask id="mask0_1_527" style="mask-type:luminance" maskUnits="userSpaceOnUse" x="5" y="4" width="33" height="16">
<path d="M37.7381 4.37524H5.72009V19.6239H37.7381V4.37524Z" fill="white"/>
</mask>
<g mask="url(#mask0_1_527)">
<path d="M20.8495 12.2599V15.9821H19.6488V6.77686H22.7706C23.531 6.77686 24.2514 7.05701 24.8118 7.57733C25.372 8.05755 25.6522 8.77797 25.6522 9.53842C25.6522 10.2989 25.372 10.9792 24.8118 11.4995C24.2514 12.0198 23.571 12.3 22.7706 12.3L20.8495 12.2599ZM20.8495 7.89745V11.0993H22.8506C23.2909 11.0993 23.7311 10.9392 24.0113 10.6191C24.6517 10.0187 24.6517 9.01811 24.0513 8.41776L24.0113 8.37773C23.6911 8.05754 23.2909 7.85743 22.8506 7.89745H20.8495Z" fill="black"/>
<path d="M28.4131 9.49841C29.2936 9.49841 29.974 9.73855 30.4943 10.2188C31.0146 10.6991 31.2547 11.3395 31.2547 12.14V15.9821H30.1341V15.1016H30.094C29.6137 15.822 28.9333 16.1822 28.1329 16.1822C27.4525 16.1822 26.8522 15.9821 26.3719 15.5818C25.9317 15.1817 25.6515 14.6214 25.6515 14.021C25.6515 13.3806 25.8916 12.8603 26.3719 12.4601C26.8522 12.0599 27.5326 11.8998 28.3331 11.8998C29.0534 11.8998 29.6137 12.0199 30.054 12.3V12.0199C30.054 11.6197 29.8939 11.2194 29.5737 10.9793C29.2535 10.6991 28.8533 10.539 28.4131 10.539C27.7327 10.539 27.2124 10.8192 26.8522 11.3795L25.8116 10.7391C26.452 9.89865 27.2925 9.49841 28.4131 9.49841ZM26.8922 14.061C26.8922 14.3812 27.0523 14.6614 27.2925 14.8215C27.5726 15.0216 27.8928 15.1417 28.213 15.1417C28.6932 15.1417 29.1735 14.9415 29.5337 14.5813C29.9339 14.2211 30.1341 13.7809 30.1341 13.3006C29.7738 13.0204 29.2535 12.8603 28.5731 12.8603C28.0929 12.8603 27.6927 12.9804 27.3725 13.2205C27.0523 13.4206 26.8922 13.7008 26.8922 14.061Z" fill="black"/>
<path d="M37.7379 9.69836L33.7756 18.7835H32.5749L34.0558 15.6217L31.4543 9.73839H32.735L34.6161 14.261H34.6562L36.4972 9.73839H37.7379V9.69836Z" fill="black"/>
<path d="M16.0874 11.4593C16.0874 11.0991 16.0474 10.7389 16.0074 10.3787H11.0045V12.4198H13.8461C13.7261 13.0602 13.3659 13.6605 12.8056 14.0207V15.3414H14.5265C15.5271 14.421 16.0874 13.0602 16.0874 11.4593Z" fill="#4285F4"/>
<path d="M11.0024 16.6223C12.4433 16.6223 13.6439 16.142 14.5244 15.3415L12.8034 14.0208C12.3232 14.341 11.7229 14.5411 11.0024 14.5411C9.64165 14.5411 8.44101 13.6206 8.04078 12.3398H6.27979V13.7006C7.20028 15.5016 9.00134 16.6223 11.0024 16.6223Z" fill="#34A853"/>
<path d="M8.04031 12.3399C7.80017 11.6995 7.80017 10.9791 8.04031 10.2988V8.93799H6.27931C5.51888 10.4189 5.51888 12.1798 6.27931 13.7006L8.04031 12.3399Z" fill="#FABB05"/>
<path d="M11.0038 8.13775C11.7642 8.13775 12.4847 8.41791 13.0449 8.93822L14.5658 7.4174C13.6053 6.53687 12.3246 6.01657 11.0438 6.0566C9.04271 6.0566 7.20163 7.17726 6.32117 8.97824L8.08215 10.339C8.44236 9.05829 9.64306 8.13775 11.0038 8.13775Z" fill="#E94235"/>
</g>
</svg>
