<svg width="32" height="24" viewBox="0 0 32 24" fill="none" xmlns="http://www.w3.org/2000/svg">
<mask id="mask0_1_560" style="mask-type:luminance" maskUnits="userSpaceOnUse" x="4" y="3" width="22" height="18">
<path d="M25.4574 3.63208H4.36646V20.3594H25.4574V3.63208Z" fill="white"/>
</mask>
<g mask="url(#mask0_1_560)">
<path fill-rule="evenodd" clip-rule="evenodd" d="M7.1888 20.1249H24.3889C24.4598 20.0446 24.5145 20.0267 24.612 19.932C24.8461 19.7088 25.0182 19.4317 25.1121 19.1266C25.2728 18.6459 25.3081 18.1341 25.2148 17.637C25.0324 16.7204 24.7575 15.7644 24.5285 14.8442L22.4612 6.47967C22.2226 5.52366 21.6544 4.90329 20.9348 4.5074C19.9396 3.95875 19.1217 4.09 18.0009 4.35177C17.0337 4.57769 16.0954 4.80289 15.1313 5.02091C14.623 5.13638 7.20654 6.80743 6.56301 7.06275C5.77764 7.37329 5.10456 7.99867 4.81937 8.82486C4.48098 9.80667 4.87404 10.8345 5.10308 11.7639L6.49356 17.3286C6.71521 18.2509 6.996 19.1969 7.18807 20.1256L7.1888 20.1249Z" fill="#ED6B06"/>
<path fill-rule="evenodd" clip-rule="evenodd" d="M22.1178 13.2213L22.0816 12.6232L21.1219 12.6038L21.1514 16.0463L22.2619 16.0628C22.2604 15.4761 22.2471 14.8852 22.2619 14.3165C22.2782 13.6781 22.6705 13.4701 23.3391 13.5619L23.3376 12.5378C22.307 12.4919 22.293 13.0929 22.1178 13.2213ZM20.5634 15.9294L20.4266 15.2122C20.239 15.1835 19.7956 15.3915 19.2061 15.3097C18.8544 15.261 18.4288 15.0523 18.4584 14.688L20.7303 14.6829C20.8212 13.6739 20.5529 12.8842 19.7551 12.6152C18.9741 12.352 18.0143 12.6425 17.6006 13.4336C17.076 14.4376 17.4122 16.0843 19.1522 16.1345C19.7802 16.1525 20.0343 16.0571 20.5634 15.9294ZM7.02197 16.0556H8.14502V14.0819H9.96699V16.0556H11.09V11.2705H9.96699V13.1029H8.14429V11.2705H7.02124V16.0556H7.02197ZM14.4295 13.113C14.4022 12.4697 14.6512 12.6583 13.4417 12.6232L13.4779 15.294C13.2045 15.2825 13.0375 15.1434 12.9378 14.9512C12.7287 14.5509 12.7937 13.6488 12.7937 13.1804L12.793 12.6139H11.6863C11.6197 13.123 11.6515 14.7101 11.8089 15.1384C12.1281 16.009 12.8108 16.0485 13.4713 16.1625V17.4677C13.7254 17.4677 14.3711 17.5036 14.5751 17.4441V16.151C15.6685 16.1496 16.6571 16.1503 17.0132 15.0645C17.1186 14.7203 17.1493 14.3586 17.1034 14.0023C17.0118 13.2134 16.5167 12.6726 15.868 12.5629C15.2437 12.4575 14.9319 12.6583 14.51 13.0442C14.4844 13.0684 14.4575 13.0914 14.4295 13.113Z" fill="white"/>
<path fill-rule="evenodd" clip-rule="evenodd" d="M15.0499 13.4301C14.5786 13.5972 14.5756 14.0469 14.5756 14.5984C14.5756 14.7389 14.5763 14.8788 14.5741 15.0194C14.5719 15.1915 14.5261 15.2926 14.6672 15.3163C14.8106 15.34 15.3447 15.3249 15.477 15.2833C16.3355 15.0129 16.0961 13.0593 15.0499 13.4301ZM18.4375 13.9429H19.7304C19.6979 12.9976 18.5616 13.0177 18.4375 13.9429Z" fill="#ED6B06"/>
<path fill-rule="evenodd" clip-rule="evenodd" d="M12.2403 11.0787C12.318 11.0788 12.3949 11.0937 12.4667 11.1226C12.5385 11.1515 12.6037 11.1939 12.6586 11.2472C12.7135 11.3006 12.7571 11.364 12.7868 11.4337C12.8165 11.5034 12.8318 11.5782 12.8317 11.6536C12.8316 11.729 12.8163 11.8037 12.7865 11.8734C12.7567 11.943 12.7131 12.0064 12.6581 12.0597C12.6031 12.113 12.5379 12.1552 12.466 12.184C12.3942 12.2129 12.3172 12.2277 12.2396 12.2277C12.0825 12.2277 11.9321 12.1672 11.8211 12.0594C11.7101 11.9517 11.6477 11.8056 11.6477 11.6532C11.6477 11.5008 11.7101 11.3547 11.8211 11.247C11.9321 11.1392 12.0825 11.0787 12.2396 11.0787H12.2403Z" fill="#FFED00"/>
</g>
</svg>
