<svg width="15" height="23" viewBox="0 0 15 23" fill="none" xmlns="http://www.w3.org/2000/svg">
<path d="M9.4381 4.56543C9.20676 4.37258 8.91682 4.24529 8.59421 4.21582C7.74814 4.13857 6.99976 4.76157 6.92251 5.60764C6.85456 6.35035 7.32654 7.01771 8.01524 7.22205C8.44299 7.03747 8.93849 6.89336 9.50106 6.79102L9.4381 4.56543ZM7.89711 5.97373L7.72319 5.86503C7.89335 5.59267 8.87293 5.64832 9.28613 5.68476L9.26808 5.88903C8.60256 5.83037 7.96205 5.86988 7.89711 5.97373Z" fill="#0641FC"/>
<path d="M7.89711 5.97373L7.72319 5.86503C7.89335 5.59267 8.87293 5.64832 9.28613 5.68476L9.26808 5.88903C8.60256 5.83037 7.96205 5.86988 7.89711 5.97373Z" fill="#0641FC"/>
<path d="M11.0515 8.38673L11.0799 9.39031C11.0813 9.44514 11.0766 9.50078 11.0657 9.55623C11.0964 10.6016 11.1617 13.6994 11.0206 17.8242C12.5952 17.6061 14.2 17.7722 14.7621 17.8447C14.4627 16.6677 12.8567 10.5458 11.4133 8.75712C11.2989 8.61527 11.1771 8.4931 11.0515 8.38673Z" fill="#0641FC"/>
<path d="M6.12686 9.31258C6.11565 9.32441 6.10423 9.33576 6.09302 9.34772C6.10184 9.34882 6.11031 9.35005 6.11934 9.35114C6.12159 9.33822 6.12446 9.3255 6.12686 9.31258Z" fill="#0641FC"/>
<path d="M6.33938 11.4096C6.50455 11.3099 6.69385 11.2573 6.8867 11.2573C7.10649 11.2573 7.31753 11.3242 7.49712 11.4507L7.53541 11.4776C7.52919 11.1765 7.50382 10.8922 7.46745 10.6305C7.33189 10.7906 7.12625 10.8873 6.90414 10.8925C6.85478 10.8937 6.79865 10.8944 6.73726 10.8944C6.24162 10.8944 5.64111 10.8483 5.15067 10.676C3.7795 12.6912 0.641595 16.3351 0 17.0755C0.966939 17.6135 6.49682 20.5783 8.14802 18.989C8.36022 18.7847 8.60619 18.6117 8.87596 18.4652C8.93106 17.0636 8.96661 15.6568 8.98117 14.2564C8.91376 14.3017 8.84075 14.3394 8.76329 14.3685C8.64372 14.4134 8.51841 14.4362 8.39078 14.4362C8.33602 14.4362 8.28146 14.4319 8.22752 14.4235L8.45032 16.1461C8.52525 16.7256 8.11479 17.2579 7.53527 17.3329C7.49001 17.3388 7.44394 17.3417 7.39834 17.3417C6.8679 17.3417 6.41663 16.9446 6.34854 16.4179L5.83581 12.4528C5.78201 12.0361 5.97972 11.6266 6.33938 11.4096Z" fill="#0641FC"/>
<path d="M10.8595 9.53724C10.8702 9.49191 10.8759 9.44474 10.8745 9.396L10.6239 0.531461C10.6155 0.234762 10.3724 0 10.0774 0C10.0722 0 10.067 6.83639e-05 10.0617 0.000205092C9.75981 0.00875058 9.5219 0.260398 9.53045 0.562361L9.71203 6.9859C9.65918 6.97954 9.60442 6.98077 9.54918 6.99068C9.52122 6.99574 9.4947 7.00155 9.46708 7.00682L9.09114 7.64698L8.45351 7.27255C7.58153 7.57615 6.96195 8.02571 6.60817 8.61692C6.40205 8.9612 6.32042 9.2955 6.29745 9.57532C5.94449 9.54592 5.62824 9.48679 5.48625 9.41774C5.43908 9.18188 5.23904 8.9971 4.98753 8.97973C4.68591 8.95874 4.42504 9.1864 4.40425 9.48767C4.38757 9.73009 4.47405 9.96376 4.6477 10.1456C5.10129 10.6205 6.1623 10.6892 6.73724 10.6892C6.79692 10.6892 6.85148 10.6885 6.8994 10.6874C7.07544 10.6833 7.2417 10.6035 7.34117 10.4582C7.43893 10.3154 7.46586 10.1435 7.4098 9.98044C7.40932 9.97894 7.40905 9.97743 7.4085 9.97593C7.39941 9.9412 7.35149 9.73228 7.42389 9.46676C7.57969 9.98694 7.77364 10.8545 7.73761 11.871L7.37904 11.6184C7.10203 11.4232 6.73567 11.4101 6.44546 11.5853C6.15526 11.7604 5.99597 12.0904 6.03945 12.4266L6.55218 16.3917C6.60783 16.8226 6.97535 17.1368 7.39859 17.1367C7.4351 17.1367 7.47208 17.1344 7.5092 17.1296C7.97729 17.069 8.30769 16.6406 8.24712 16.1725L7.98269 14.1273C8.19913 14.245 8.45782 14.2643 8.69142 14.1765C8.9242 14.0891 9.10557 13.9052 9.19137 13.6753C9.17824 15.7371 9.11603 18.3842 8.93938 21.3587C8.91135 21.8298 9.2706 22.2344 9.74169 22.2624C9.75899 22.2634 9.77608 22.2639 9.79317 22.2639C10.2419 22.2639 10.6185 21.9138 10.6454 21.46C10.9947 15.5768 10.9016 10.9479 10.8595 9.53724Z" fill="#0641FC"/>
</svg>
