<svg width="46" height="46" viewBox="0 0 46 46" fill="none" xmlns="http://www.w3.org/2000/svg">
<rect x="0.5" y="0.5" width="45" height="45" rx="22.5" fill="white"/>
<rect x="0.5" y="0.5" width="45" height="45" rx="22.5" stroke="#D9D9D9"/>
<path d="M16.868 30L26.564 18.08H28.58L18.884 30H16.868ZM18.692 24.128C18.1053 24.128 17.5773 23.9893 17.108 23.712C16.6387 23.424 16.26 23.0453 15.972 22.576C15.6947 22.1067 15.556 21.584 15.556 21.008C15.556 20.432 15.6947 19.9093 15.972 19.44C16.26 18.96 16.6387 18.5813 17.108 18.304C17.5773 18.0267 18.1053 17.888 18.692 17.888C19.2787 17.888 19.8067 18.0267 20.276 18.304C20.7453 18.5813 21.1187 18.96 21.396 19.44C21.6733 19.9093 21.812 20.432 21.812 21.008C21.812 21.584 21.6733 22.1067 21.396 22.576C21.1187 23.0453 20.7453 23.424 20.276 23.712C19.8067 23.9893 19.2787 24.128 18.692 24.128ZM18.692 22.672C19.0227 22.672 19.3053 22.592 19.54 22.432C19.7853 22.272 19.972 22.064 20.1 21.808C20.228 21.552 20.292 21.2853 20.292 21.008C20.292 20.72 20.228 20.4533 20.1 20.208C19.972 19.952 19.7853 19.744 19.54 19.584C19.3053 19.424 19.0227 19.344 18.692 19.344C18.372 19.344 18.0893 19.424 17.844 19.584C17.5987 19.744 17.4067 19.952 17.268 20.208C17.14 20.4533 17.076 20.72 17.076 21.008C17.076 21.2853 17.14 21.552 17.268 21.808C17.4067 22.064 17.5987 22.272 17.844 22.432C18.0893 22.592 18.372 22.672 18.692 22.672ZM26.676 30.192C26.0893 30.192 25.556 30.0533 25.076 29.776C24.6067 29.488 24.2333 29.1093 23.956 28.64C23.6787 28.1707 23.54 27.648 23.54 27.072C23.54 26.496 23.6787 25.9733 23.956 25.504C24.2333 25.024 24.6067 24.6453 25.076 24.368C25.556 24.0907 26.0893 23.952 26.676 23.952C27.2627 23.952 27.7907 24.0907 28.26 24.368C28.7293 24.6453 29.1027 25.024 29.38 25.504C29.6573 25.9733 29.796 26.496 29.796 27.072C29.796 27.648 29.6573 28.1707 29.38 28.64C29.1027 29.1093 28.7293 29.488 28.26 29.776C27.7907 30.0533 27.2627 30.192 26.676 30.192ZM26.676 28.736C27.0067 28.736 27.2893 28.656 27.524 28.496C27.7587 28.336 27.94 28.128 28.068 27.872C28.2067 27.616 28.276 27.3493 28.276 27.072C28.276 26.784 28.2067 26.5173 28.068 26.272C27.94 26.016 27.7587 25.808 27.524 25.648C27.2893 25.488 27.0067 25.408 26.676 25.408C26.356 25.408 26.0733 25.488 25.828 25.648C25.5827 25.808 25.3907 26.016 25.252 26.272C25.124 26.5173 25.06 26.784 25.06 27.072C25.06 27.3493 25.124 27.616 25.252 27.872C25.3907 28.128 25.5827 28.336 25.828 28.496C26.0733 28.656 26.356 28.736 26.676 28.736Z" fill="#2A2E33"/>
</svg>
