<svg width="18" height="18" viewBox="0 0 18 18" fill="none" xmlns="http://www.w3.org/2000/svg">
<path d="M10.4017 17.1L10.8533 16.3367L9.77833 15.7L9.32583 16.4633L10.4017 17.1ZM7.06333 16.3367L7.515 17.1L8.59 16.4633L8.13917 15.7L7.06333 16.3367ZM9.32583 16.4633C9.28688 16.5257 9.23272 16.5771 9.16843 16.6127C9.10414 16.6484 9.03184 16.6671 8.95833 16.6671C8.88483 16.6671 8.81253 16.6484 8.74824 16.6127C8.68395 16.5771 8.62978 16.5257 8.59083 16.4633L7.515 17.1C8.15917 18.1892 9.75667 18.1892 10.4017 17.1L9.32583 16.4633ZM7.70833 1.25H10.2083V3.47049e-07H7.70833V1.25ZM16.6667 7.70833V8.54167H17.9167V7.70833H16.6667ZM1.25 8.54167V7.70833H0V8.54167H1.25ZM0 8.54167C0 9.50417 -4.03573e-08 10.2567 0.0416666 10.8642C0.0833333 11.4767 0.169167 11.9867 0.365 12.4583L1.52 11.98C1.3975 11.6867 1.32583 11.3283 1.28833 10.7792C1.25 10.2242 1.25 9.52083 1.25 8.54167H0ZM5.46083 14.16C4.41417 14.1417 3.86583 14.075 3.43583 13.8967L2.95833 15.0517C3.62917 15.33 4.3925 15.3925 5.43917 15.4108L5.46083 14.16ZM0.365 12.4583C0.605804 13.0397 0.958767 13.568 1.40373 14.0129C1.8487 14.4579 2.37695 14.8109 2.95833 15.0517L3.43583 13.8967C2.56807 13.5372 1.87946 12.8478 1.52 11.98L0.365 12.4583ZM16.6667 8.54167C16.6667 9.52083 16.6667 10.2242 16.6283 10.7792C16.5908 11.3283 16.5192 11.6867 16.3975 11.98L17.5517 12.4583C17.7475 11.9867 17.8333 11.4767 17.8758 10.8642C17.9175 10.2567 17.9167 9.50417 17.9167 8.54167H16.6667ZM12.4775 15.4092C13.5242 15.3917 14.2875 15.33 14.9583 15.0517L14.48 13.8967C14.0508 14.075 13.5025 14.1417 12.4567 14.16L12.4775 15.4092ZM16.3975 11.98C16.038 12.8478 15.3486 13.5372 14.4808 13.8967L14.9583 15.0517C15.5397 14.8109 16.068 14.4579 16.5129 14.0129C16.9579 13.568 17.3109 13.0397 17.5517 12.4583L16.3975 11.98ZM10.2083 1.25C11.5842 1.25 12.5725 1.25 13.3433 1.32417C14.105 1.39667 14.5892 1.535 14.9758 1.77167L15.6283 0.705834C15.0125 0.329167 14.3142 0.160834 13.4617 0.079167C12.6183 -0.000832962 11.56 3.47049e-07 10.2083 3.47049e-07V1.25ZM17.9167 7.70833C17.9167 6.35667 17.9167 5.29917 17.8367 4.455C17.7558 3.6025 17.5875 2.90333 17.2108 2.28833L16.1442 2.94083C16.3817 3.3275 16.52 3.81167 16.5925 4.57417C16.6658 5.34417 16.6667 6.3325 16.6667 7.70833H17.9167ZM14.975 1.77167C15.4518 2.06358 15.8527 2.46423 16.145 2.94083L17.2108 2.28833C16.8156 1.64331 16.2734 1.10102 15.6283 0.705834L14.975 1.77167ZM7.70833 3.47049e-07C6.35667 3.47049e-07 5.29917 3.72529e-07 4.455 0.079167C3.6025 0.160834 2.90333 0.329167 2.28833 0.705834L2.94083 1.7725C3.3275 1.535 3.81167 1.39667 4.57417 1.32417C5.34417 1.25083 6.3325 1.25 7.70833 1.25V3.47049e-07ZM1.25 7.70833C1.25 6.3325 1.25 5.34417 1.32417 4.57333C1.39667 3.81167 1.535 3.3275 1.77167 2.94083L0.705833 2.28917C0.329167 2.90417 0.160833 3.6025 0.0791667 4.455C2.48353e-08 5.3 0 6.35667 0 7.70833H1.25ZM2.28833 0.705834C1.64331 1.10102 1.10102 1.64415 0.705833 2.28917L1.7725 2.94083C2.06428 2.46442 2.46463 2.06379 2.94083 1.77167L2.28833 0.705834ZM8.13833 15.7C7.97 15.4142 7.82167 15.1617 7.67667 14.9633C7.5281 14.7454 7.33424 14.562 7.10833 14.4258L6.48 15.5067C6.51917 15.53 6.57333 15.5717 6.66667 15.7C6.7675 15.8383 6.88167 16.03 7.06333 16.3367L8.13833 15.7ZM5.43917 15.4092C5.80583 15.4158 6.03667 15.4208 6.21333 15.44C6.37833 15.4583 6.4425 15.485 6.48 15.5067L7.10833 14.4258C6.87546 14.2955 6.61694 14.2176 6.35083 14.1975C6.1025 14.17 5.80417 14.1658 5.46083 14.16L5.43917 15.4092ZM10.8533 16.3367C11.035 16.0308 11.1492 15.8383 11.25 15.7C11.3433 15.5717 11.3975 15.53 11.4367 15.5067L10.8083 14.4258C10.5667 14.5675 10.3917 14.755 10.24 14.9633C10.0958 15.1617 9.94667 15.4133 9.7775 15.7L10.8533 16.3367ZM12.4567 14.16C12.1133 14.1658 11.8142 14.17 11.5658 14.1975C11.3067 14.2267 11.0525 14.2842 10.8083 14.4258L11.4367 15.5067C11.4742 15.485 11.5383 15.4583 11.7033 15.44C11.88 15.4208 12.1117 15.415 12.4783 15.4092L12.4567 14.16Z" fill="#2A2E33"/>
<path d="M11.875 5.48331L12.0183 5.62665C13.1292 6.73748 13.685 7.29331 13.685 7.98331C13.685 8.67415 13.1292 9.22915 12.0183 10.3408L11.875 10.4833M10.0367 3.95831L8.95833 7.98331L7.88 12.0083M6.04166 5.48331L5.89917 5.62665C4.7875 6.73748 4.2325 7.29331 4.2325 7.98331C4.2325 8.67415 4.7875 9.22915 5.89917 10.3408L6.04166 10.4833" stroke="#2A2E33" stroke-width="1.5" stroke-linecap="round"/>
</svg>
