<svg width="64" height="64" viewBox="0 0 64 64" fill="none" xmlns="http://www.w3.org/2000/svg">
<circle cx="32" cy="32" r="32" fill="#0641FC"/>
<path d="M31.744 34.672L28.544 35.344C28.224 35.1307 27.9253 34.8107 27.648 34.384C27.3706 33.9574 27.232 33.456 27.232 32.88C27.232 32.304 27.3813 31.8667 27.68 31.568C28 31.2694 28.4693 31.0454 29.088 30.896L31.52 30.288C32.288 30.0747 32.8533 29.7867 33.216 29.424C33.6 29.0614 33.792 28.56 33.792 27.92C33.792 27.3654 33.5573 26.864 33.088 26.416C32.6186 25.968 31.8293 25.744 30.72 25.744C29.8666 25.744 29.0346 25.8614 28.224 26.096C27.4346 26.3307 26.7946 26.6187 26.304 26.96C26.0053 26.704 25.7386 26.3947 25.504 26.032C25.2693 25.6694 25.152 25.2534 25.152 24.784C25.152 23.76 25.728 23.0027 26.88 22.512C28.0533 22 29.536 21.744 31.328 21.744C32.9493 21.744 34.3146 22.0107 35.424 22.544C36.5333 23.056 37.376 23.7814 37.952 24.72C38.5493 25.6374 38.848 26.704 38.848 27.92C38.848 29.7547 38.2506 31.216 37.056 32.304C35.8826 33.392 34.112 34.1814 31.744 34.672ZM27.648 39.792C27.648 39.0027 27.8933 38.352 28.384 37.84C28.896 37.328 29.5786 37.072 30.432 37.072C31.264 37.072 31.9253 37.328 32.416 37.84C32.928 38.352 33.184 39.0027 33.184 39.792C33.184 40.5814 32.928 41.232 32.416 41.744C31.9253 42.256 31.264 42.512 30.432 42.512C29.5786 42.512 28.896 42.256 28.384 41.744C27.8933 41.232 27.648 40.5814 27.648 39.792Z" fill="white"/>
</svg>
