<svg width="37" height="24" viewBox="0 0 37 24" fill="none" xmlns="http://www.w3.org/2000/svg">
<path d="M21.1824 6.10327H14.6206V17.8957H21.1824V6.10327Z" fill="#FF5D11"/>
<path d="M15.0372 12.0016C15.036 10.8658 15.2933 9.74451 15.7895 8.72286C16.2857 7.70114 17.008 6.8057 17.9015 6.1044C16.7951 5.23497 15.4666 4.69431 14.0675 4.54425C12.6685 4.39417 11.2554 4.64073 9.98994 5.25573C8.72439 5.87075 7.65737 6.8294 6.9109 8.02214C6.16442 9.21486 5.76855 10.5935 5.76855 12.0006C5.76855 13.4077 6.16442 14.7863 6.9109 15.979C7.65737 17.1718 8.72439 18.1304 9.98994 18.7455C11.2554 19.3605 12.6685 19.607 14.0675 19.4569C15.4666 19.3069 16.7951 18.7662 17.9015 17.8968C17.0082 17.1957 16.2862 16.3006 15.7899 15.2793C15.2937 14.2579 15.0363 13.1371 15.0372 12.0016Z" fill="#EC0021"/>
<path d="M30.0359 12.001C30.0358 13.4082 29.6399 14.787 28.8933 15.9797C28.1466 17.1725 27.0795 18.1312 25.8138 18.7461C24.5481 19.361 23.1349 19.6074 21.7359 19.4571C20.3367 19.3068 19.0081 18.7659 17.9019 17.8962C18.7947 17.1945 19.5166 16.2991 20.013 15.2778C20.5093 14.2564 20.7672 13.1356 20.7672 12C20.7672 10.8644 20.5093 9.74362 20.013 8.7222C19.5166 7.70085 18.7947 6.80551 17.9019 6.10381C19.0081 5.2341 20.3367 4.69318 21.7359 4.5429C23.1349 4.39261 24.5481 4.639 25.8138 5.25393C27.0795 5.86885 28.1466 6.82749 28.8933 8.02027C29.6399 9.213 30.0358 10.5918 30.0359 11.9989V12.001Z" fill="#F89E26"/>
<path d="M29.3208 16.6466V16.4049H29.4188V16.355H29.1709V16.4049H29.2771V16.6466H29.3208ZM29.802 16.6466V16.355H29.727L29.6396 16.5633L29.552 16.355H29.4854V16.6466H29.5396V16.4279L29.6208 16.6174H29.6771L29.7583 16.4279V16.6487L29.802 16.6466Z" fill="#F89E26"/>
</svg>
