<svg width="18" height="18" viewBox="0 0 18 18" fill="none" xmlns="http://www.w3.org/2000/svg">
<path fill-rule="evenodd" clip-rule="evenodd" d="M5.83333 6.45831C5.83333 5.62951 6.16257 4.83466 6.74862 4.2486C7.33467 3.66255 8.12953 3.33331 8.95833 3.33331C9.78713 3.33331 10.582 3.66255 11.168 4.2486C11.7541 4.83466 12.0833 5.62951 12.0833 6.45831C12.0833 7.28711 11.7541 8.08197 11.168 8.66802C10.582 9.25407 9.78713 9.58331 8.95833 9.58331C8.12953 9.58331 7.33467 9.25407 6.74862 8.66802C6.16257 8.08197 5.83333 7.28711 5.83333 6.45831ZM8.95833 4.58331C8.46105 4.58331 7.98414 4.78086 7.63251 5.13249C7.28088 5.48412 7.08333 5.96103 7.08333 6.45831C7.08333 6.95559 7.28088 7.43251 7.63251 7.78414C7.98414 8.13577 8.46105 8.33331 8.95833 8.33331C9.45561 8.33331 9.93253 8.13577 10.2842 7.78414C10.6358 7.43251 10.8333 6.95559 10.8333 6.45831C10.8333 5.96103 10.6358 5.48412 10.2842 5.13249C9.93253 4.78086 9.45561 4.58331 8.95833 4.58331Z" fill="#2A2E33"/>
<path fill-rule="evenodd" clip-rule="evenodd" d="M0 8.95833C0 4.01083 4.01083 0 8.95833 0C13.9058 0 17.9167 4.01083 17.9167 8.95833C17.9167 13.9058 13.9058 17.9167 8.95833 17.9167C4.01083 17.9167 0 13.9058 0 8.95833ZM8.95833 1.25C7.43558 1.25007 5.94696 1.70115 4.68029 2.54634C3.41362 3.39152 2.42566 4.59294 1.84105 5.99901C1.25645 7.40507 1.10139 8.95279 1.39545 10.4469C1.68951 11.941 2.4195 13.3145 3.49333 14.3942C3.64333 13.5833 3.93917 12.8192 4.53167 12.2042C5.41917 11.2842 6.83667 10.8333 8.95833 10.8333C11.08 10.8333 12.4975 11.2842 13.3842 12.2042C13.9775 12.8192 14.2725 13.5842 14.4233 14.395C15.4974 13.3154 16.2277 11.9418 16.5219 10.4475C16.8161 8.95331 16.6611 7.4054 16.0765 5.99917C15.4919 4.59293 14.5038 3.39138 13.2369 2.54616C11.9701 1.70093 10.4813 1.24991 8.95833 1.25ZM13.2867 15.3375C13.2017 14.3275 12.9825 13.5875 12.485 13.0717C11.9433 12.5108 10.9408 12.0833 8.95833 12.0833C6.97583 12.0833 5.97333 12.5108 5.43167 13.0717C4.93417 13.5883 4.715 14.3275 4.63 15.3383C5.90616 16.2067 7.41473 16.6697 8.95833 16.6667C10.502 16.6695 12.0106 16.2062 13.2867 15.3375Z" fill="#2A2E33"/>
</svg>
