<svg width="46" height="24" viewBox="0 0 46 24" fill="none" xmlns="http://www.w3.org/2000/svg">
<mask id="mask0_1_539" style="mask-type:luminance" maskUnits="userSpaceOnUse" x="5" y="4" width="35" height="16">
<path d="M39.0331 4.5H5.625V19.5H39.0331V4.5Z" fill="white"/>
</mask>
<g mask="url(#mask0_1_539)">
<mask id="mask1_1_539" style="mask-type:luminance" maskUnits="userSpaceOnUse" x="2" y="1" width="40" height="20">
<path d="M2.96924 1.84131H41.6948V20.2707H2.96924V1.84131Z" fill="white"/>
</mask>
<g mask="url(#mask1_1_539)">
<path d="M7.31496 15.2695H6.58771V13.3884H7.31496C7.88128 13.3884 8.26596 13.8081 8.26596 14.3254C8.26596 14.85 7.88128 15.2695 7.31496 15.2695ZM7.38486 12.5076H5.63672V17.6119H6.58771V16.1505H7.37781C8.44063 16.1505 9.22386 15.3395 9.22386 14.3254C9.22386 13.3187 8.44063 12.5076 7.38486 12.5076Z" fill="black"/>
<path d="M11.645 16.8291C10.9458 16.8291 10.4076 16.2697 10.4076 15.5566C10.4076 14.8504 10.9458 14.2981 11.645 14.2981C12.3442 14.2981 12.8687 14.8643 12.8687 15.5566C12.8687 16.2628 12.3442 16.8291 11.645 16.8291ZM12.8198 14.0113C12.5261 13.6617 12.0436 13.4377 11.5054 13.4377C10.4704 13.4377 9.47754 14.2141 9.47754 15.5705C9.47754 16.9062 10.5053 17.6962 11.4912 17.6962C12.0296 17.6962 12.5191 17.4585 12.8198 17.0809V17.6122H13.7638V13.5217H12.8198V14.0113Z" fill="black"/>
<path d="M16.2883 16.2761L15.1486 13.5212H14.1416L15.8199 17.4089L14.9596 19.4996H15.9178L18.3581 13.5212H17.3651L16.2883 16.2761Z" fill="black"/>
<path d="M33.2811 8.39943H33.2548L32.1575 4.65161H30.3853V9.37683H31.5596L31.4937 5.4997H31.5199L32.6986 9.37683H34.3987V4.65161H33.2163L33.2811 8.39943Z" fill="black"/>
<path d="M11.7989 5.09392L11.8256 5.0935L12.4621 9.42595H13.7447L12.8647 4.65161H10.7405L9.85547 9.42595H11.146L11.7989 5.09392Z" fill="black"/>
<path d="M17.9536 4.65161L17.3647 8.30237H17.3375L16.7495 4.65161H14.802L14.6968 9.42595H15.8918L15.9217 5.13396H15.948L16.7456 9.42595H17.957L18.7549 5.13439L18.7813 5.13396L18.8111 9.42595H20.0054L19.9001 4.65161H17.9536Z" fill="black"/>
<path d="M7.36466 9.6133C8.22859 9.6133 8.93884 9.3187 9.05231 8.5216C9.11044 8.10955 9.06776 7.83956 9.04721 7.73913C8.84569 6.73927 7.03427 6.44107 6.89908 5.88194C6.87636 5.78498 6.88188 5.68441 6.89398 5.631C6.92776 5.47775 7.03151 5.31039 7.33001 5.31039C7.60976 5.31039 7.77364 5.48285 7.77364 5.74303V6.0388H8.96516V5.70247C8.96516 4.66258 8.03096 4.5 7.35521 4.5C6.50668 4.5 5.81248 4.7812 5.686 5.55985C5.65138 5.77277 5.6467 5.96339 5.69693 6.20383C5.90401 7.17967 7.60076 7.46162 7.84669 8.0797C7.89341 8.19513 7.87856 8.34318 7.85614 8.43281C7.81729 8.59188 7.70914 8.75418 7.39099 8.75418C7.09247 8.75418 6.91129 8.58123 6.91129 8.32121L6.91013 7.85845H5.62981L5.62939 8.22648C5.62939 9.29163 6.46739 9.6133 7.36466 9.6133Z" fill="black"/>
<path d="M22.4318 5.89399C22.4086 5.79862 22.4144 5.69922 22.4258 5.64612C22.4597 5.49448 22.5626 5.3287 22.8576 5.3287C23.1353 5.3287 23.2972 5.49883 23.2972 5.75699V6.04924H24.477V5.71685C24.477 4.68727 23.5518 4.52649 22.8828 4.52649C22.0433 4.52649 21.3558 4.80419 21.2308 5.57539C21.1963 5.7863 21.1915 5.97502 21.2418 6.21268C21.4462 7.1794 23.1264 7.45837 23.3699 8.0704C23.4156 8.18507 23.4014 8.33087 23.3789 8.42012C23.3405 8.57725 23.2337 8.73745 22.9186 8.73745C22.6227 8.73745 22.4432 8.56697 22.4432 8.3089L22.4424 7.85132H21.1746L21.1743 8.21575C21.1743 9.27017 22.0044 9.5884 22.8926 9.5884C23.7479 9.5884 24.4511 9.29695 24.5633 8.50757C24.6207 8.0998 24.5788 7.83272 24.5582 7.7326C24.3584 6.7425 22.565 6.44759 22.4318 5.89399Z" fill="black"/>
<path d="M29.0543 4.65161H27.8458V8.18371C27.8462 8.24499 27.8445 8.31459 27.8345 8.36604C27.8108 8.48349 27.7087 8.71209 27.3767 8.71209C27.0444 8.71209 26.9417 8.48349 26.9186 8.36604C26.9084 8.31459 26.906 8.24499 26.9072 8.18371V4.65161H25.6996V8.07489C25.6973 8.16294 25.7063 8.34249 25.7106 8.38914C25.7943 9.28021 26.4987 9.56896 27.3767 9.56896C28.2544 9.56896 28.9588 9.28021 29.042 8.38914C29.0468 8.34249 29.0558 8.16294 29.0543 8.07489V4.65161Z" fill="black"/>
<path d="M37.3451 6.74478V7.44091H37.8346V8.13429C37.8355 8.19466 37.8331 8.26149 37.8232 8.31534C37.8016 8.44306 37.681 8.66199 37.3352 8.66199C36.99 8.66199 36.8695 8.44306 36.847 8.31541C36.8379 8.26156 36.8356 8.19481 36.8359 8.13429V5.95159C36.8359 5.87386 36.8416 5.78848 36.8552 5.72561C36.8815 5.60784 36.9837 5.37919 37.3309 5.37919C37.696 5.37919 37.7867 5.62036 37.8082 5.72561C37.8225 5.79442 37.8232 5.90752 37.8232 5.90752V6.17514H39.0274V6.01606C39.0274 6.01606 39.0316 5.85379 39.0163 5.70172C38.9283 4.80637 38.1871 4.52197 37.3405 4.52197C36.4933 4.52197 35.7709 4.80913 35.6645 5.70172C35.6547 5.78147 35.6443 5.93121 35.6443 6.01606L35.644 8.02464C35.6443 8.11464 35.6468 8.18026 35.6606 8.33904C35.7403 9.20874 36.4933 9.51909 37.34 9.51909C38.1862 9.51909 38.9402 9.20866 39.0191 8.33904C39.0335 8.18026 39.0355 8.11464 39.0364 8.02464V6.74478H37.3451Z" fill="black"/>
</g>
</g>
</svg>
