<svg width="31" height="32" viewBox="0 0 31 32" fill="none" xmlns="http://www.w3.org/2000/svg">
<path d="M15.4282 19C17.0851 19 18.4282 17.6569 18.4282 16C18.4282 14.3431 17.0851 13 15.4282 13C13.7714 13 12.4282 14.3431 12.4282 16C12.4282 17.6569 13.7714 19 15.4282 19Z" stroke="#2A2E33" stroke-width="1.5"/>
<path d="M17.1932 6.152C16.8262 6 16.3602 6 15.4282 6C14.4962 6 14.0302 6 13.6632 6.152C13.4204 6.25251 13.1997 6.3999 13.0139 6.58572C12.8281 6.77155 12.6807 6.99218 12.5802 7.235C12.4882 7.458 12.4512 7.719 12.4372 8.098C12.4307 8.37193 12.3548 8.63973 12.2166 8.87635C12.0785 9.11298 11.8825 9.31069 11.6472 9.451C11.408 9.58477 11.1388 9.65567 10.8647 9.65707C10.5907 9.65847 10.3207 9.59032 10.0802 9.459C9.74418 9.281 9.50118 9.183 9.26018 9.151C8.7345 9.08187 8.20288 9.22431 7.78219 9.547C7.46819 9.79 7.23418 10.193 6.76818 11C6.30218 11.807 6.06818 12.21 6.01718 12.605C5.98282 12.8655 6.0001 13.1301 6.06805 13.3839C6.136 13.6377 6.25328 13.8756 6.41318 14.084C6.56118 14.276 6.76818 14.437 7.08918 14.639C7.56218 14.936 7.86619 15.442 7.86619 16C7.86619 16.558 7.56218 17.064 7.08918 17.36C6.76818 17.563 6.56018 17.724 6.41318 17.916C6.25328 18.1244 6.136 18.3623 6.06805 18.6161C6.0001 18.8699 5.98282 19.1345 6.01718 19.395C6.06918 19.789 6.30218 20.193 6.76718 21C7.23418 21.807 7.46719 22.21 7.78219 22.453C7.99062 22.6129 8.22852 22.7302 8.48229 22.7981C8.73606 22.8661 9.00073 22.8834 9.26119 22.849C9.50119 22.817 9.74418 22.719 10.0802 22.541C10.3207 22.4097 10.5907 22.3415 10.8647 22.3429C11.1388 22.3443 11.408 22.4152 11.6472 22.549C12.1302 22.829 12.4172 23.344 12.4372 23.902C12.4512 24.282 12.4872 24.542 12.5802 24.765C12.6807 25.0078 12.8281 25.2284 13.0139 25.4143C13.1997 25.6001 13.4204 25.7475 13.6632 25.848C14.0302 26 14.4962 26 15.4282 26C16.3602 26 16.8262 26 17.1932 25.848C17.436 25.7475 17.6566 25.6001 17.8425 25.4143C18.0283 25.2284 18.1757 25.0078 18.2762 24.765C18.3682 24.542 18.4052 24.282 18.4192 23.902C18.4392 23.344 18.7262 22.828 19.2092 22.549C19.4484 22.4152 19.7176 22.3443 19.9917 22.3429C20.2657 22.3415 20.5356 22.4097 20.7762 22.541C21.1122 22.719 21.3552 22.817 21.5952 22.849C21.8556 22.8834 22.1203 22.8661 22.3741 22.7981C22.6278 22.7302 22.8657 22.6129 23.0742 22.453C23.3892 22.211 23.6222 21.807 24.0882 21C24.5542 20.193 24.7882 19.79 24.8392 19.395C24.8735 19.1345 24.8563 18.8699 24.7883 18.6161C24.7204 18.3623 24.6031 18.1244 24.4432 17.916C24.2952 17.724 24.0882 17.563 23.7672 17.361C23.5331 17.2184 23.339 17.0187 23.2032 16.7807C23.0673 16.5427 22.994 16.2741 22.9902 16C22.9902 15.442 23.2942 14.936 23.7672 14.64C24.0882 14.437 24.2962 14.276 24.4432 14.084C24.6031 13.8756 24.7204 13.6377 24.7883 13.3839C24.8563 13.1301 24.8735 12.8655 24.8392 12.605C24.7872 12.211 24.5542 11.807 24.0892 11C23.6222 10.193 23.3892 9.79 23.0742 9.547C22.8657 9.38709 22.6278 9.26981 22.3741 9.20187C22.1203 9.13392 21.8556 9.11664 21.5952 9.151C21.3552 9.183 21.1122 9.281 20.7752 9.459C20.5348 9.59014 20.265 9.6582 19.9912 9.6568C19.7173 9.6554 19.4483 9.58459 19.2092 9.451C18.9738 9.31069 18.7779 9.11298 18.6397 8.87635C18.5016 8.63973 18.4257 8.37193 18.4192 8.098C18.4052 7.718 18.3692 7.458 18.2762 7.235C18.1757 6.99218 18.0283 6.77155 17.8425 6.58572C17.6566 6.3999 17.436 6.25251 17.1932 6.152Z" stroke="#2A2E33" stroke-width="1.5"/>
</svg>
