<svg width="18" height="18" viewBox="0 0 18 18" fill="none" xmlns="http://www.w3.org/2000/svg">
<path fill-rule="evenodd" clip-rule="evenodd" d="M8.95228 0H9.04772C10.9808 0 12.4953 4.99016e-08 13.6775 0.15907C14.8864 0.321488 15.8408 0.661395 16.5901 1.40986C17.3394 2.15916 17.6785 3.11358 17.8409 4.32335C18 5.50465 18 7.01916 18 8.95228V9.04772C18 10.9808 18 12.4953 17.8409 13.6775C17.6785 14.8864 17.3386 15.8408 16.5901 16.5901C15.8408 17.3394 14.8864 17.6785 13.6767 17.8409C12.4953 18 10.9808 18 9.04772 18H8.95228C7.01916 18 5.50465 18 4.32251 17.8409C3.11358 17.6785 2.15916 17.3386 1.40986 16.5901C0.660558 15.8408 0.321488 14.8864 0.15907 13.6767C4.99016e-08 12.4953 0 10.9808 0 9.04772V8.95228C0 7.01916 4.99016e-08 5.50465 0.15907 4.32251C0.321488 3.11358 0.661395 2.15916 1.40986 1.40986C2.15916 0.660558 3.11358 0.321488 4.32335 0.15907C5.50465 4.99016e-08 7.01916 0 8.95228 0ZM4.48995 1.40316C3.42 1.54716 2.77451 1.82177 2.29814 2.29814C1.82093 2.77535 1.54716 3.42 1.40316 4.49079C1.25749 5.57916 1.25581 7.00912 1.25581 9C1.25581 10.9909 1.25749 12.4208 1.40316 13.5092C1.54716 14.58 1.82177 15.2255 2.29814 15.7027C2.77535 16.1791 3.42 16.4528 4.49079 16.5968C5.57916 16.7425 7.00912 16.7442 9 16.7442C10.9909 16.7442 12.4208 16.7425 13.5092 16.5968C14.58 16.4528 15.2255 16.1782 15.7027 15.7019C16.1791 15.2247 16.4528 14.58 16.5968 13.5092C16.7425 12.4208 16.7442 10.9909 16.7442 9C16.7442 7.00912 16.7425 5.57916 16.5968 4.49079C16.4528 3.42 16.1782 2.77451 15.7019 2.2973C15.2247 1.82093 14.58 1.54716 13.5092 1.40316C12.4208 1.25749 10.9909 1.25581 9 1.25581C7.00912 1.25581 5.57833 1.25749 4.48995 1.40316ZM9.40772 4.2254C9.66228 4.0738 9.95721 4.00392 10.2527 4.02517C10.5482 4.04643 10.8301 4.15781 11.0604 4.34428C12.3656 5.35563 13.8148 7.10456 13.8148 9.55842C13.8148 11.5485 12.9709 12.8537 11.8792 13.6398C10.8193 14.4025 9.56679 14.6512 8.72205 14.6512C7.68544 14.6342 6.68465 14.2691 5.88056 13.6147C4.9094 12.816 4.18688 11.5158 4.18688 9.55842C4.18688 7.7333 5.24009 6.57293 6.10493 5.9986C6.26247 5.89037 6.44363 5.82142 6.63327 5.79753C6.82291 5.77365 7.01552 5.79551 7.19498 5.8613C7.5826 6.012 7.84465 6.372 7.86809 6.81572C7.87646 6.96642 7.91163 7.10456 7.96019 7.21758C7.97989 7.26196 8.00342 7.30454 8.03051 7.34484C8.424 6.79814 8.61907 6.05219 8.61907 5.65116C8.61907 5.03916 8.93135 4.50586 9.40772 4.2254ZM10.0448 5.30707C9.96363 5.35563 9.87488 5.47033 9.87488 5.65116C9.87488 6.32009 9.59191 7.34819 9.02009 8.11926C8.82 8.388 8.54205 8.60651 8.1854 8.65674C8.02696 8.67682 7.86607 8.66335 7.71318 8.61719C7.56029 8.57104 7.41881 8.49323 7.29795 8.38884C6.94549 8.1 6.72363 7.63535 6.64493 7.15479C6.05553 7.59851 5.4427 8.38047 5.4427 9.55758C5.4427 11.1734 6.02205 12.1052 6.67926 12.6452C7.25833 13.1146 7.97683 13.3784 8.72205 13.3953C9.36502 13.3953 10.3446 13.1969 11.1458 12.6209C11.9143 12.0675 12.559 11.1391 12.559 9.55842C12.559 7.64037 11.4287 6.21795 10.291 5.33637C10.2527 5.30368 10.2054 5.28326 10.1553 5.27777C10.1167 5.27629 10.0776 5.2865 10.0448 5.30707Z" fill="black"/>
</svg>
