<svg width="49" height="24" viewBox="0 0 49 24" fill="none" xmlns="http://www.w3.org/2000/svg">
<path d="M21.1265 17.6321H18.3281L20.0785 7.07178H22.8766L21.1265 17.6321Z" fill="#1633CA"/>
<path d="M31.2707 7.33031C30.7187 7.11666 29.8433 6.88074 28.7608 6.88074C25.9973 6.88074 24.0514 8.31867 24.0394 10.3745C24.0165 11.8912 25.4327 12.7337 26.492 13.2394C27.5746 13.7562 27.9426 14.0935 27.9426 14.5542C27.9316 15.2616 27.0677 15.5877 26.2621 15.5877C25.1449 15.5877 24.5462 15.4195 23.6365 15.0259L23.268 14.8572L22.8765 17.2278C23.5328 17.5195 24.7419 17.7785 25.9973 17.7898C28.9336 17.7898 30.8451 16.3742 30.8678 14.1834C30.8789 12.9812 30.1312 12.0601 28.5189 11.3074C27.5402 10.8242 26.9408 10.4984 26.9408 10.004C26.9522 9.55453 27.4477 9.09424 28.5525 9.09424C29.4623 9.07169 30.1306 9.28507 30.637 9.49853L30.8901 9.61067L31.2707 7.33031Z" fill="#1633CA"/>
<path d="M34.9914 13.891C35.2219 13.2843 36.1087 10.9363 36.1087 10.9363C36.097 10.9588 36.3386 10.3184 36.4768 9.92522L36.6724 10.8352C36.6724 10.8352 37.2024 13.363 37.3174 13.891C36.8801 13.891 35.5442 13.891 34.9914 13.891ZM38.4456 7.07178H36.2811C35.6136 7.07178 35.1065 7.26261 34.8186 7.94798L30.662 17.6319H33.5982C33.5982 17.6319 34.0816 16.3286 34.1855 16.0478C34.5076 16.0478 37.364 16.0478 37.7783 16.0478C37.8586 16.4186 38.1122 17.6319 38.1122 17.6319H40.7032L38.4456 7.07178Z" fill="#1633CA"/>
<path d="M15.9912 7.07178L13.2508 14.2729L12.9513 12.8124C12.4446 11.1273 10.8556 9.29627 9.0824 8.38594L11.5926 17.6209H14.5517L18.9503 7.07178H15.9912Z" fill="#1633CA"/>
<path d="M10.706 7.07312H6.20377L6.15771 7.28652C9.66971 8.16281 11.9957 10.2753 12.9513 12.8142L11.9726 7.96078C11.8115 7.28638 11.3163 7.09537 10.706 7.07312Z" fill="#1633CA"/>
</svg>
