<svg width="18" height="18" viewBox="0 0 18 18" fill="none" xmlns="http://www.w3.org/2000/svg">
<path fill-rule="evenodd" clip-rule="evenodd" d="M15.3075 7.39499C15.2638 7.39296 15.2201 7.39221 15.1763 7.39274H13.35C11.856 7.39274 10.5765 8.57849 10.5765 10.125C10.5765 11.6715 11.856 12.8572 13.3508 12.8572H15.1755C15.2215 12.8577 15.2653 12.8567 15.3068 12.8542C15.6151 12.8342 15.9056 12.703 16.1244 12.4849C16.3432 12.2668 16.4753 11.9767 16.4963 11.6685C16.4993 11.6242 16.4993 11.577 16.4993 11.5335V8.71649C16.4993 8.67299 16.4993 8.62574 16.4963 8.58149C16.4753 8.27341 16.3433 7.98339 16.1246 7.76532C15.906 7.54724 15.6157 7.41592 15.3075 7.39574M13.1903 10.854C13.575 10.854 13.8878 10.5285 13.8878 10.1257C13.8878 9.72299 13.575 9.39749 13.1903 9.39749C12.8055 9.39749 12.4935 9.72299 12.4935 10.1257C12.4935 10.5285 12.8048 10.854 13.1903 10.854Z" fill="#D1DCFF"/>
<path fill-rule="evenodd" clip-rule="evenodd" d="M15.1755 13.95C15.2006 13.9491 15.2256 13.9542 15.2484 13.9647C15.2713 13.9752 15.2913 13.991 15.3069 14.0107C15.3225 14.0304 15.3333 14.0535 15.3383 14.0781C15.3434 14.1028 15.3426 14.1282 15.336 14.1525C15.1905 14.6715 14.9602 15.114 14.5905 15.486C14.0498 16.0313 13.3635 16.2735 12.516 16.3883C11.6925 16.5 10.641 16.5 9.312 16.5H7.78425C6.456 16.5 5.40375 16.5 4.58025 16.3883C3.73275 16.2735 3.0465 16.0313 2.50575 15.486C1.965 14.9423 1.725 14.25 1.611 13.3965C1.5 12.5655 1.5 11.505 1.5 10.1663V10.0837C1.5 8.745 1.5 7.68375 1.611 6.85425C1.725 6 1.965 5.31 2.505 4.76325C3.04575 4.21875 3.732 3.97575 4.5795 3.86175C5.40375 3.75 6.456 3.75 7.78425 3.75H9.312C10.6403 3.75 11.6925 3.75 12.516 3.86175C13.3635 3.9765 14.0498 4.21875 14.5905 4.76325C14.9602 5.136 15.1905 5.5785 15.336 6.09825C15.3425 6.12246 15.3431 6.14785 15.338 6.17238C15.3329 6.19691 15.3221 6.2199 15.3065 6.23951C15.2909 6.25912 15.2709 6.27481 15.2482 6.28531C15.2254 6.29582 15.2005 6.30085 15.1755 6.3H13.3507C11.3003 6.3 9.4935 7.93275 9.4935 10.125C9.4935 12.3173 11.301 13.95 13.3515 13.95H15.1755ZM4.2105 6.6645C4.13909 6.66479 4.06844 6.67915 4.00259 6.70675C3.93673 6.73435 3.87695 6.77465 3.82667 6.82535C3.77639 6.87605 3.73658 6.93616 3.70953 7.00224C3.68248 7.06833 3.6687 7.13909 3.669 7.2105C3.669 7.51275 3.91125 7.75725 4.2105 7.75725H7.1025C7.4025 7.75725 7.64475 7.51275 7.64475 7.2105C7.64515 7.06622 7.58827 6.92768 7.4866 6.8253C7.38493 6.72293 7.24678 6.6651 7.1025 6.6645H4.2105Z" fill="#D1DCFF"/>
<path d="M5.83276 3.01801L7.30126 1.93576C7.68452 1.65257 8.14849 1.49976 8.62501 1.49976C9.10154 1.49976 9.56551 1.65257 9.94876 1.93576L11.4255 3.02401C10.8075 3.00001 10.1175 3.00001 9.36226 3.00001H7.73476C7.04326 3.00001 6.40801 3.00001 5.83276 3.01801Z" fill="#D1DCFF"/>
</svg>
