<svg xmlns="http://www.w3.org/2000/svg" width="101" height="101" viewBox="0 0 101 101" fill="none"><rect x="0.537109" y="0.684082" width="99.7871" height="99.7871" rx="30" fill="#DDEBFF"></rect><path d="M51.0313 41.2235L38.1901 54.0647C36.6016 55.6532 34.0243 55.6467 32.4439 54.0502L24.4381 45.963C22.1031 43.6043 22.0863 39.8104 24.4004 37.4311L37.101 24.3726C37.8655 23.5865 38.9154 23.1431 40.0119 23.1431H76.0687V30.1L66.9454 39.2233C66.2185 39.9502 65.2326 40.3585 64.2046 40.3585H53.1195C52.3363 40.3585 51.5851 40.6697 51.0313 41.2235Z" fill="#0641FC"></path><path d="M49.8301 59.9321L62.6714 47.0909C64.2598 45.5024 66.8372 45.5089 68.4175 47.1054L76.4234 55.1926C78.7583 57.5513 78.7751 61.3452 76.461 63.7245L63.7604 76.783C62.9959 77.5691 61.946 78.0125 60.8495 78.0125H24.7927V71.0556L33.916 61.9323C34.6429 61.2054 35.6288 60.7971 36.6568 60.7971H47.7419C48.5251 60.7971 49.2763 60.4859 49.8301 59.9321Z" fill="#0641FC"></path></svg>